<mxfile host="app.diagrams.net" modified="2022-08-25T09:30:45.622Z" agent="5.0 (Macintosh; Intel Mac OS X 10_15_7) AppleWebKit/537.36 (KHTML, like Gecko) Chrome/104.0.0.0 Safari/537.36" etag="SDwk0OBON6Hvviqjm4Q-" version="20.2.7" type="github" pages="2">
  <diagram id="oE2_1I7N5nSIbNqHSl13" name="UML">
    <mxGraphModel dx="1186" dy="653" grid="1" gridSize="10" guides="1" tooltips="1" connect="1" arrows="1" fold="1" page="1" pageScale="1" pageWidth="827" pageHeight="1169" math="0" shadow="0">
      <root>
        <mxCell id="0" />
        <mxCell id="1" parent="0" />
        <mxCell id="H5zos54c4SpsF4I4KSYb-1" value="HashMap" style="swimlane;fontStyle=1;align=center;verticalAlign=top;childLayout=stackLayout;horizontal=1;startSize=26;horizontalStack=0;resizeParent=1;resizeParentMax=0;resizeLast=0;collapsible=1;marginBottom=0;" vertex="1" parent="1">
          <mxGeometry x="330" y="290" width="440" height="338" as="geometry" />
        </mxCell>
        <mxCell id="H5zos54c4SpsF4I4KSYb-2" value="+ float: loadFactor&#xa;+ int: threshold   阀值&#xa;+ int: size           当前元素个数&#xa;+ int: modCount&#xa;+ Node&lt;K,V&gt;[]: table&#xa;+ Set&lt;Map.Entry&lt;K,V&gt;&gt; entrySet" style="text;strokeColor=none;fillColor=none;align=left;verticalAlign=top;spacingLeft=4;spacingRight=4;overflow=hidden;rotatable=0;points=[[0,0.5],[1,0.5]];portConstraint=eastwest;" vertex="1" parent="H5zos54c4SpsF4I4KSYb-1">
          <mxGeometry y="26" width="440" height="104" as="geometry" />
        </mxCell>
        <mxCell id="H5zos54c4SpsF4I4KSYb-3" value="" style="line;strokeWidth=1;fillColor=none;align=left;verticalAlign=middle;spacingTop=-1;spacingLeft=3;spacingRight=3;rotatable=0;labelPosition=right;points=[];portConstraint=eastwest;" vertex="1" parent="H5zos54c4SpsF4I4KSYb-1">
          <mxGeometry y="130" width="440" height="8" as="geometry" />
        </mxCell>
        <mxCell id="H5zos54c4SpsF4I4KSYb-4" value="+ put(K,V): V&#xa;+ get(Object): V " style="text;strokeColor=none;fillColor=none;align=left;verticalAlign=top;spacingLeft=4;spacingRight=4;overflow=hidden;rotatable=0;points=[[0,0.5],[1,0.5]];portConstraint=eastwest;" vertex="1" parent="H5zos54c4SpsF4I4KSYb-1">
          <mxGeometry y="138" width="440" height="200" as="geometry" />
        </mxCell>
      </root>
    </mxGraphModel>
  </diagram>
  <diagram id="g6DwlqotJYV2SGOiSlwl" name="putVal">
    <mxGraphModel dx="1186" dy="653" grid="1" gridSize="10" guides="1" tooltips="1" connect="1" arrows="1" fold="1" page="1" pageScale="1" pageWidth="827" pageHeight="1169" math="0" shadow="0">
      <root>
        <mxCell id="0" />
        <mxCell id="1" parent="0" />
      </root>
    </mxGraphModel>
  </diagram>
</mxfile>
